<?xml version="1.0" standalone="no"?>
<!DOCTYPE svg PUBLIC "-//W3C//DTD SVG 20010904//EN"
 "http://www.w3.org/TR/2001/REC-SVG-20010904/DTD/svg10.dtd">
<svg version="1.0" xmlns="http://www.w3.org/2000/svg"
 width="48.000000pt" height="48.000000pt" viewBox="0 0 48.000000 48.000000"
 preserveAspectRatio="xMidYMid meet">
<metadata>
Created by potrace 1.16, written by Peter Selinger 2001-2019
</metadata>
<g transform="translate(0.000000,48.000000) scale(0.010619,-0.010619)"
fill="#000000" stroke="none">
<path d="M1450 3936 l-1075 -212 0 -1464 0 -1464 1085 -213 c597 -117 1086
-213 1088 -213 1 0 2 851 2 1890 0 1506 -3 1890 -12 1889 -7 -1 -497 -97
-1088 -213z m79 -977 c88 -20 154 -60 236 -143 236 -237 284 -634 117 -961
-47 -91 -174 -221 -253 -258 -189 -88 -382 -47 -532 113 -78 84 -122 157 -159
266 -60 181 -60 387 0 568 37 109 81 182 159 266 120 128 281 184 432 149z"/>
<path d="M1322 2654 c-163 -81 -237 -371 -151 -598 76 -204 247 -274 381 -157
183 161 183 561 0 722 -74 64 -146 75 -230 33z"/>
<path d="M2630 3065 l0 -235 665 0 665 0 0 -735 0 -735 -665 0 -665 0 0 -70 0
-70 709 0 708 0 34 23 c73 49 69 -15 69 1017 0 1032 4 968 -69 1017 l-34 23
-708 0 -709 0 0 -235z"/>
<path d="M2960 2585 l0 -135 125 0 125 0 0 135 0 135 -125 0 -125 0 0 -135z"/>
<path d="M3290 2585 l0 -135 120 0 120 0 0 135 0 135 -120 0 -120 0 0 -135z"/>
<path d="M3610 2585 l0 -135 120 0 120 0 0 135 0 135 -120 0 -120 0 0 -135z"/>
<path d="M2640 2245 l0 -135 125 0 125 0 0 135 0 135 -125 0 -125 0 0 -135z"/>
<path d="M2960 2245 l0 -135 125 0 125 0 0 135 0 135 -125 0 -125 0 0 -135z"/>
<path d="M3290 2245 l0 -135 120 0 120 0 0 135 0 135 -120 0 -120 0 0 -135z"/>
<path d="M3610 2245 l0 -135 120 0 120 0 0 135 0 135 -120 0 -120 0 0 -135z"/>
<path d="M2640 1920 l0 -130 125 0 125 0 0 130 0 130 -125 0 -125 0 0 -130z"/>
<path d="M2960 1920 l0 -130 125 0 125 0 0 130 0 130 -125 0 -125 0 0 -130z"/>
<path d="M3290 1920 l0 -130 120 0 120 0 0 130 0 130 -120 0 -120 0 0 -130z"/>
<path d="M3610 1920 l0 -130 120 0 120 0 0 130 0 130 -120 0 -120 0 0 -130z"/>
<path d="M2640 1585 l0 -135 125 0 125 0 0 135 0 135 -125 0 -125 0 0 -135z"/>
<path d="M2967 1713 c-4 -3 -7 -64 -7 -135 l0 -128 125 0 125 0 0 135 0 135
-118 0 c-65 0 -122 -3 -125 -7z"/>
<path d="M3290 1585 l0 -135 120 0 120 0 0 135 0 135 -120 0 -120 0 0 -135z"/>
</g>
</svg>
